<svg xmlns="http://www.w3.org/2000/svg" width="400" height="300"><rect x="0" y="0" width="400" height="300" fill="#222222"/><path d="M47.67 173.81L30.27 173.81L17.72 123.77L34.27 123.77L40.69 158.93L49.53 123.77L62.73 123.77L71.57 158.93L77.05 123.77L93.61 123.77L81.33 173.81L63.57 173.81L55.76 146.65L47.67 173.81ZM119.09 174.27L119.09 174.27L119.09 174.27Q110.72 174.27 105.60 172.09L105.60 172.09L105.60 172.09Q100.49 169.90 98.21 164.37L98.21 164.37L98.21 164.37Q95.93 158.83 95.93 148.88L95.93 148.88L95.93 148.88Q95.93 138.65 98.03 133.03L98.03 133.03L98.03 133.03Q100.12 127.40 105.05 125.17L105.05 125.17L105.05 125.17Q109.98 122.94 118.44 122.94L118.44 122.94L118.44 122.94Q126.16 122.94 130.72 124.42L130.72 124.42L130.72 124.42Q135.27 125.91 137.27 129.73L137.27 129.73L137.27 129.73Q139.27 133.54 139.27 140.51L139.27 140.51L139.27 140.51Q139.27 145.72 137.22 148.79L137.22 148.79L137.22 148.79Q135.18 151.86 131.41 153.12L131.41 153.12L131.41 153.12Q127.65 154.37 122.53 154.37L122.53 154.37L111.84 154.37L111.84 154.37Q112.11 157.35 113.00 159.11L113.00 159.11L113.00 159.11Q113.88 160.88 116.30 161.63L116.30 161.63L116.30 161.63Q118.72 162.37 123.46 162.37L123.46 162.37L137.50 162.37L137.50 171.76L137.50 171.76Q134.06 172.60 129.65 173.44L129.65 173.44L129.65 173.44Q125.23 174.27 119.09 174.27ZM111.65 144.88L111.65 144.88L120.76 144.88L120.76 144.88Q123.09 144.88 124.11 143.95L124.11 143.95L124.11 143.95Q125.13 143.02 125.13 140.61L125.13 140.61L125.13 140.61Q125.13 138.38 124.48 137.03L124.48 137.03L124.48 137.03Q123.83 135.68 122.34 135.07L122.34 135.07L122.34 135.07Q120.86 134.47 118.44 134.47L118.44 134.47L118.44 134.47Q116.02 134.47 114.53 135.35L114.53 135.35L114.53 135.35Q113.05 136.24 112.35 138.51L112.35 138.51L112.35 138.51Q111.65 140.79 111.65 144.88ZM161.50 116.98L149.04 116.98L149.04 116.98Q146.99 116.98 146.99 114.94L146.99 114.94L146.99 105.17L146.99 105.17Q146.99 103.03 149.04 103.03L149.04 103.03L161.50 103.03L161.50 103.03Q162.52 103.03 162.99 103.64L162.99 103.64L162.99 103.64Q163.45 104.24 163.45 105.17L163.45 105.17L163.45 114.94L163.45 114.94Q163.45 116.98 161.50 116.98L161.50 116.98ZM163.27 173.81L147.18 173.81L147.18 123.77L163.27 123.77L163.27 173.81ZM201.12 196.97L185.77 196.97L185.77 196.97Q181.12 196.97 177.40 195.57L177.40 195.57L177.40 195.57Q173.68 194.17 171.54 191.52L171.54 191.52L171.54 191.52Q169.40 188.87 169.40 185.06L169.40 185.06L169.40 183.85L169.40 183.85Q169.40 179.95 171.68 177.11L171.68 177.11L171.68 177.11Q173.96 174.27 177.59 172.78L177.59 172.78L177.59 172.78Q181.21 171.30 185.31 171.30L185.31 171.30L190.33 176.04L190.33 176.04Q188.47 176.04 187.21 176.60L187.21 176.60L187.21 176.60Q185.96 177.16 185.26 178.18L185.26 178.18L185.26 178.18Q184.56 179.20 184.56 180.60L184.56 180.60L184.56 181.34L184.56 181.34Q184.56 183.39 186.00 184.60L186.00 184.60L186.00 184.60Q187.45 185.81 190.33 185.81L190.33 185.81L199.16 185.81L199.16 185.81Q201.86 185.81 203.53 184.74L203.53 184.74L203.53 184.74Q205.21 183.67 205.21 181.53L205.21 181.53L205.21 180.22L205.21 180.22Q205.21 178.92 204.51 177.99L204.51 177.99L204.51 177.99Q203.81 177.06 202.56 176.55L202.56 176.55L202.56 176.55Q201.30 176.04 199.35 176.04L199.35 176.04L189.58 176.04L189.58 176.04Q180.38 176.04 176.01 172.69L176.01 172.69L176.01 172.69Q171.64 169.34 171.64 164.51L171.64 164.51L171.64 164.51Q171.64 160.69 173.77 158.04L173.77 158.04L173.77 158.04Q175.91 155.39 179.82 154.46L179.82 154.46L179.82 154.46Q177.03 152.79 175.36 150.56L175.36 150.56L175.36 150.56Q173.68 148.33 172.94 145.68L172.94 145.68L172.94 145.68Q172.19 143.02 172.19 140.23L172.19 140.23L172.19 140.23Q172.19 134.75 174.43 131.07L174.43 131.07L174.43 131.07Q176.66 127.40 181.35 125.59L181.35 125.59L181.35 125.59Q186.05 123.77 193.49 123.77L193.49 123.77L220.74 123.77L220.74 132.52L214.32 134.10L214.32 134.10Q215.07 135.03 215.67 136.28L215.67 136.28L215.67 136.28Q216.28 137.54 216.69 139.31L216.69 139.31L216.69 139.31Q217.11 141.07 217.11 143.68L217.11 143.68L217.11 143.68Q217.11 148.14 215.25 151.58L215.25 151.58L215.25 151.58Q213.39 155.02 209.44 156.97L209.44 156.97L209.44 156.97Q205.49 158.93 198.88 158.93L198.88 158.93L189.68 158.93L189.68 158.93Q187.82 158.93 186.47 159.58L186.47 159.58L186.47 159.58Q185.12 160.23 185.12 161.72L185.12 161.72L185.12 161.72Q185.12 163.11 186.33 163.62L186.33 163.62L186.33 163.62Q187.54 164.14 189.12 164.14L189.12 164.14L202.05 164.14L202.05 164.14Q207.72 164.14 211.81 165.62L211.81 165.62L211.81 165.62Q215.90 167.11 218.14 170.51L218.14 170.51L218.14 170.51Q220.37 173.90 220.37 179.57L220.37 179.57L220.37 180.60L220.37 180.60Q220.37 188.22 215.72 192.59L215.72 192.59L215.72 192.59Q211.07 196.97 201.12 196.97L201.12 196.97ZM191.91 146.93L191.91 146.93L197.12 146.93L197.12 146.93Q199.26 146.93 200.47 146.33L200.47 146.33L200.47 146.33Q201.67 145.72 202.19 144.42L202.19 144.42L202.19 144.42Q202.70 143.12 202.70 141.35L202.70 141.35L202.70 141.35Q202.70 139.31 202.14 138.05L202.14 138.05L202.14 138.05Q201.58 136.79 200.37 136.24L200.37 136.24L200.37 136.24Q199.16 135.68 197.21 135.68L197.21 135.68L192.10 135.68L192.10 135.68Q189.21 135.68 187.91 136.93L187.91 136.93L187.91 136.93Q186.61 138.19 186.61 141.26L186.61 141.26L186.61 141.26Q186.61 144.23 187.86 145.58L187.86 145.58L187.86 145.58Q189.12 146.93 191.91 146.93ZM248.92 174.27L248.92 174.27L248.92 174.27Q242.50 174.27 237.99 172.92L237.99 172.92L237.99 172.92Q233.48 171.58 230.69 168.55L230.69 168.55L230.69 168.55Q227.90 165.53 226.69 160.65L226.69 160.65L226.69 160.65Q225.48 155.77 225.48 148.70L225.48 148.70L225.48 148.70Q225.48 141.07 226.74 136.10L226.74 136.10L226.74 136.10Q227.99 131.12 230.78 128.24L230.78 128.24L230.78 128.24Q233.57 125.35 238.08 124.15L238.08 124.15L238.08 124.15Q242.59 122.94 248.92 122.94L248.92 122.94L248.92 122.94Q255.43 122.94 259.89 124.19L259.89 124.19L259.89 124.19Q264.36 125.45 267.10 128.38L267.10 128.38L267.10 128.38Q269.84 131.31 271.15 136.28L271.15 136.28L271.15 136.28Q272.45 141.26 272.45 148.70L272.45 148.70L272.45 148.70Q272.45 156.04 271.24 160.97L271.24 160.97L271.24 160.97Q270.03 165.90 267.29 168.83L267.29 168.83L267.29 168.83Q264.54 171.76 260.03 173.02L260.03 173.02L260.03 173.02Q255.52 174.27 248.92 174.27ZM248.92 161.53L248.92 161.53L248.92 161.53Q251.06 161.53 252.45 161.11L252.45 161.11L252.45 161.11Q253.85 160.69 254.68 159.44L254.68 159.44L254.68 159.44Q255.52 158.18 255.94 155.58L255.94 155.58L255.94 155.58Q256.36 152.98 256.36 148.60L256.36 148.60L256.36 148.60Q256.36 144.23 255.94 141.63L255.94 141.63L255.94 141.63Q255.52 139.03 254.68 137.77L254.68 137.77L254.68 137.77Q253.85 136.51 252.45 136.14L252.45 136.14L252.45 136.14Q251.06 135.77 248.92 135.77L248.92 135.77L248.92 135.77Q246.87 135.77 245.48 136.14L245.48 136.14L245.48 136.14Q244.08 136.51 243.20 137.77L243.20 137.77L243.20 137.77Q242.32 139.03 241.94 141.63L241.94 141.63L241.94 141.63Q241.57 144.23 241.57 148.60L241.57 148.60L241.57 148.60Q241.57 152.98 241.94 155.58L241.94 155.58L241.94 155.58Q242.32 158.18 243.20 159.44L243.20 159.44L243.20 159.44Q244.08 160.69 245.48 161.11L245.48 161.11L245.48 161.11Q246.87 161.53 248.92 161.53ZM296.44 173.81L280.35 173.81L280.35 123.77L293.65 123.77L296.44 128.70L296.44 128.70Q298.95 126.47 303.00 124.70L303.00 124.70L303.00 124.70Q307.04 122.94 311.32 122.94L311.32 122.94L311.32 122.94Q317.65 122.94 320.99 125.35L320.99 125.35L320.99 125.35Q324.34 127.77 325.60 131.96L325.60 131.96L325.60 131.96Q326.85 136.14 326.85 141.16L326.85 141.16L326.85 173.81L310.76 173.81L310.76 143.30L310.76 143.30Q310.76 141.16 310.02 139.86L310.02 139.86L310.02 139.86Q309.28 138.56 307.97 137.96L307.97 137.96L307.97 137.96Q306.67 137.35 304.90 137.35L304.90 137.35L304.90 137.35Q303.32 137.35 301.74 137.77L301.74 137.77L301.74 137.77Q300.16 138.19 298.86 138.93L298.86 138.93L298.86 138.93Q297.56 139.68 296.44 140.61L296.44 140.61L296.44 173.81ZM364.52 196.97L349.17 196.97L349.17 196.97Q344.52 196.97 340.80 195.57L340.80 195.57L340.80 195.57Q337.08 194.17 334.94 191.52L334.94 191.52L334.94 191.52Q332.80 188.87 332.80 185.06L332.80 185.06L332.80 183.85L332.80 183.85Q332.80 179.95 335.08 177.11L335.08 177.11L335.08 177.11Q337.36 174.27 340.99 172.78L340.99 172.78L340.99 172.78Q344.62 171.30 348.71 171.30L348.71 171.30L353.73 176.04L353.73 176.04Q351.87 176.04 350.61 176.60L350.61 176.60L350.61 176.60Q349.36 177.16 348.66 178.18L348.66 178.18L348.66 178.18Q347.96 179.20 347.96 180.60L347.96 180.60L347.96 181.34L347.96 181.34Q347.96 183.39 349.40 184.60L349.40 184.60L349.40 184.60Q350.85 185.81 353.73 185.81L353.73 185.81L362.56 185.81L362.56 185.81Q365.26 185.81 366.94 184.74L366.94 184.74L366.94 184.74Q368.61 183.67 368.61 181.53L368.61 181.53L368.61 180.22L368.61 180.22Q368.61 178.92 367.91 177.99L367.91 177.99L367.91 177.99Q367.21 177.06 365.96 176.55L365.96 176.55L365.96 176.55Q364.70 176.04 362.75 176.04L362.75 176.04L352.99 176.04L352.99 176.04Q343.78 176.04 339.41 172.69L339.41 172.69L339.41 172.69Q335.04 169.34 335.04 164.51L335.04 164.51L335.04 164.51Q335.04 160.69 337.18 158.04L337.18 158.04L337.18 158.04Q339.31 155.39 343.22 154.46L343.22 154.46L343.22 154.46Q340.43 152.79 338.76 150.56L338.76 150.56L338.76 150.56Q337.08 148.33 336.34 145.68L336.34 145.68L336.34 145.68Q335.59 143.02 335.59 140.23L335.59 140.23L335.59 140.23Q335.59 134.75 337.83 131.07L337.83 131.07L337.83 131.07Q340.06 127.40 344.75 125.59L344.75 125.59L344.75 125.59Q349.45 123.77 356.89 123.77L356.89 123.77L384.14 123.77L384.14 132.52L377.72 134.10L377.72 134.10Q378.47 135.03 379.07 136.28L379.07 136.28L379.07 136.28Q379.68 137.54 380.09 139.31L380.09 139.31L380.09 139.31Q380.51 141.07 380.51 143.68L380.51 143.68L380.51 143.68Q380.51 148.14 378.65 151.58L378.65 151.58L378.65 151.58Q376.79 155.02 372.84 156.97L372.84 156.97L372.84 156.97Q368.89 158.93 362.29 158.93L362.29 158.93L353.08 158.93L353.08 158.93Q351.22 158.93 349.87 159.58L349.87 159.58L349.87 159.58Q348.52 160.23 348.52 161.72L348.52 161.72L348.52 161.72Q348.52 163.11 349.73 163.62L349.73 163.62L349.73 163.62Q350.94 164.14 352.52 164.14L352.52 164.14L365.45 164.14L365.45 164.14Q371.12 164.14 375.21 165.62L375.21 165.62L375.21 165.62Q379.30 167.11 381.54 170.51L381.54 170.51L381.54 170.51Q383.77 173.90 383.77 179.57L383.77 179.57L383.77 180.60L383.77 180.60Q383.77 188.22 379.12 192.59L379.12 192.59L379.12 192.59Q374.47 196.97 364.52 196.97L364.52 196.97ZM355.31 146.93L355.31 146.93L360.52 146.93L360.52 146.93Q362.66 146.93 363.87 146.33L363.87 146.33L363.87 146.33Q365.08 145.72 365.59 144.42L365.59 144.42L365.59 144.42Q366.10 143.12 366.10 141.35L366.10 141.35L366.10 141.35Q366.10 139.31 365.54 138.05L365.54 138.05L365.54 138.05Q364.98 136.79 363.77 136.24L363.77 136.24L363.77 136.24Q362.56 135.68 360.61 135.68L360.61 135.68L355.50 135.68L355.50 135.68Q352.61 135.68 351.31 136.93L351.31 136.93L351.31 136.93Q350.01 138.19 350.01 141.26L350.01 141.26L350.01 141.26Q350.01 144.23 351.26 145.58L351.26 145.58L351.26 145.58Q352.52 146.93 355.31 146.93Z" fill="#FFFFFF"/></svg>